<svg width="1200" height="800" viewBox="0 0 1200 800" xmlns="http://www.w3.org/2000/svg">
    <defs>
        <linearGradient id="bg" x1="0%" y1="0%" x2="100%" y2="100%">
            <stop offset="0%" stop-color="#05040A"/>
            <stop offset="50%" stop-color="#1B0F2A"/>
            <stop offset="100%" stop-color="#2C0E3A"/>
        </linearGradient>
        <linearGradient id="panel" x1="0%" y1="0%" x2="100%" y2="0%">
            <stop offset="0%" stop-color="#5B1FA3"/>
            <stop offset="40%" stop-color="#7B45D4"/>
            <stop offset="100%" stop-color="#3CB4E5"/>
        </linearGradient>
        <linearGradient id="pulse" x1="0%" y1="0%" x2="100%" y2="0%">
            <stop offset="0%" stop-color="#37FFB0" stop-opacity="0.9"/>
            <stop offset="50%" stop-color="#65A7FF" stop-opacity="0.8"/>
            <stop offset="100%" stop-color="#D176FF" stop-opacity="0.9"/>
        </linearGradient>
        <filter id="glow">
            <feGaussianBlur stdDeviation="6" result="blur"/>
            <feMerge>
                <feMergeNode in="blur"/>
                <feMergeNode in="SourceGraphic"/>
            </feMerge>
        </filter>
    </defs>
    <rect width="1200" height="800" fill="url(#bg)"/>
    <!-- circuit grid -->
    <g stroke="#4A1C71" stroke-opacity="0.35">
        <path d="M150 120h900M150 220h900M150 320h900M150 420h900M150 520h900M150 620h900"/>
        <path d="M250 60v680M450 60v680M650 60v680M850 60v680M1050 60v680"/>
    </g>
    <!-- floating data nodes -->
    <g fill="#00FFC6" fill-opacity="0.9">
        <circle cx="260" cy="180" r="5"/>
        <circle cx="520" cy="140" r="7"/>
        <circle cx="740" cy="260" r="6"/>
        <circle cx="940" cy="180" r="4"/>
        <circle cx="860" cy="540" r="6"/>
    </g>
    <g fill="#FF7BE8" fill-opacity="0.9">
        <circle cx="320" cy="420" r="4"/>
        <circle cx="540" cy="500" r="6"/>
        <circle cx="700" cy="360" r="5"/>
        <circle cx="980" cy="460" r="7"/>
    </g>
    <!-- central console -->
    <rect x="200" y="360" width="800" height="260" rx="30" fill="#090910" stroke="#6C3DB7" stroke-width="3"/>
    <rect x="230" y="390" width="350" height="200" rx="18" fill="#120A1F" stroke="#7E5CE0" stroke-width="2"/>
    <rect x="610" y="390" width="360" height="200" rx="18" fill="#120A1F" stroke="#7E5CE0" stroke-width="2"/>
    <!-- waveform -->
    <path d="M260 490c20-60 40-60 60 0s40 60 60 0 40-60 60 0 40 60 60 0" fill="none" stroke="url(#pulse)" stroke-width="6" filter="url(#glow)"/>
    <!-- AI grid -->
    <g fill="none" stroke="#27E4FF" stroke-opacity="0.4">
        <rect x="640" y="420" width="140" height="140" rx="12"/>
        <rect x="800" y="420" width="140" height="140" rx="12"/>
    </g>
    <g fill="#27E4FF" fill-opacity="0.8">
        <circle cx="710" cy="490" r="8"/>
        <circle cx="870" cy="490" r="8"/>
        <circle cx="775" cy="455" r="5"/>
        <circle cx="805" cy="545" r="5"/>
    </g>
    <!-- holographic brain -->
    <path d="M595 250c0-55 45-100 100-100h10c55 0 100 45 100 100s-45 100-100 100h-10c-55 0-100-45-100-100z" fill="none" stroke="url(#panel)" stroke-width="8" filter="url(#glow)"/>
    <path d="M630 250c0-35 28-63 63-63s63 28 63 63-28 63-63 63-63-28-63-63z" fill="none" stroke="#7EF6FF" stroke-width="4"/>
    <path d="M668 210c25 0 25 80 50 80" stroke="#7EF6FF" stroke-width="4" fill="none"/>
    <path d="M694 210c25 0 25 80 50 80" stroke="#7EF6FF" stroke-width="4" fill="none"/>
    <path d="M668 290c25 0 25-80 50-80" stroke="#7EF6FF" stroke-width="4" fill="none"/>
    <path d="M694 290c25 0 25-80 50-80" stroke="#7EF6FF" stroke-width="4" fill="none"/>
    <!-- floating UI elements -->
    <rect x="280" y="180" width="160" height="70" rx="12" fill="rgba(13,13,25,0.8)" stroke="#7B45D4"/>
    <rect x="920" y="260" width="120" height="50" rx="12" fill="rgba(13,13,25,0.8)" stroke="#3CB4E5"/>
    <rect x="260" y="580" width="130" height="40" rx="10" fill="rgba(15,15,30,0.9)" stroke="#37FFB0"/>
    <text x="300" y="215" font-size="22" font-family="Orbitron, 'Archivo Black', sans-serif" fill="#E4D8FF">AUDIO AI</text>
    <text x="950" y="290" font-size="20" font-family="Orbitron, 'Archivo Black', sans-serif" fill="#ACF1FF">AUTO MIX</text>
    <text x="280" y="606" font-size="16" font-family="Space Mono, monospace" fill="#A1FFE8">Model Ready ▸</text>
</svg>

